<?xml version="1.0" encoding="UTF-8"?>
<!DOCTYPE svg PUBLIC "-//W3C//DTD SVG 1.1//EN" "http://www.w3.org/Graphics/SVG/1.1/DTD/svg11.dtd">
<svg xmlns="http://www.w3.org/2000/svg" version="1.1" width="360px" height="360px" style="shape-rendering:geometricPrecision; text-rendering:geometricPrecision; image-rendering:optimizeQuality; fill-rule:evenodd; clip-rule:evenodd" xmlns:xlink="http://www.w3.org/1999/xlink">
<g><path style="opacity:1" fill="#fefefe" d="M -0.5,-0.5 C 119.5,-0.5 239.5,-0.5 359.5,-0.5C 359.5,119.5 359.5,239.5 359.5,359.5C 239.5,359.5 119.5,359.5 -0.5,359.5C -0.5,239.5 -0.5,119.5 -0.5,-0.5 Z"/></g>
<g><path style="opacity:1" fill="#d5d3d4" d="M 114.5,109.5 C 114.5,150.5 114.5,191.5 114.5,232.5C 105.167,232.5 95.8333,232.5 86.5,232.5C 86.5,238.167 86.5,243.833 86.5,249.5C 85.5104,243.69 85.1771,237.69 85.5,231.5C 94.8333,231.5 104.167,231.5 113.5,231.5C 113.168,190.663 113.501,149.997 114.5,109.5 Z"/></g>
<g><path style="opacity:1" fill="#252122" d="M 86.5,249.5 C 86.5,243.833 86.5,238.167 86.5,232.5C 95.8333,232.5 105.167,232.5 114.5,232.5C 114.5,191.5 114.5,150.5 114.5,109.5C 116.137,101.026 121.137,95.5262 129.5,93C 168.833,92.3333 208.167,92.3333 247.5,93C 254.745,94.5771 259.911,98.7438 263,105.5C 263.5,112.492 263.666,119.492 263.5,126.5C 254.167,126.5 244.833,126.5 235.5,126.5C 235.173,131.544 235.506,136.544 236.5,141.5C 263.678,148.851 275.511,166.517 272,194.5C 266.742,212.592 254.908,223.592 236.5,227.5C 235.669,234.811 235.169,242.144 235,249.5C 233.537,258.963 228.037,264.463 218.5,266C 179.5,266.667 140.5,266.667 101.5,266C 93.1368,263.474 88.1368,257.974 86.5,249.5 Z"/></g>
<g><path style="opacity:1" fill="#f9f8f8" d="M 240.5,103.5 C 250.5,102.167 254.833,106.5 253.5,116.5C 247.5,116.5 241.5,116.5 235.5,116.5C 234.373,110.914 236.04,106.581 240.5,103.5 Z"/></g>
<g><path style="opacity:1" fill="#fbfbfb" d="M 131.5,103.5 C 163.518,102.841 195.184,103.507 226.5,105.5C 225.521,117.42 225.188,129.42 225.5,141.5C 207.272,144.217 194.772,154.217 188,171.5C 183.238,195.804 191.738,213.638 213.5,225C 217.311,226.739 221.311,227.572 225.5,227.5C 225.666,234.508 225.5,241.508 225,248.5C 222.792,255.11 218.292,257.276 211.5,255C 210.333,253.833 209.167,252.667 208,251.5C 206.63,245.258 206.13,238.925 206.5,232.5C 179.672,231.502 152.672,231.169 125.5,231.5C 125.5,190.5 125.5,149.5 125.5,108.5C 126.712,105.893 128.712,104.226 131.5,103.5 Z"/></g>
<g><path style="opacity:1" fill="#837f80" d="M 131.5,103.5 C 163.329,102.502 195.329,102.168 227.5,102.5C 227.737,103.791 227.404,104.791 226.5,105.5C 195.184,103.507 163.518,102.841 131.5,103.5 Z"/></g>
<g><path style="opacity:1" fill="#e4e2e3" d="M 125.5,108.5 C 125.5,149.5 125.5,190.5 125.5,231.5C 152.672,231.169 179.672,231.502 206.5,232.5C 179.167,232.5 151.833,232.5 124.5,232.5C 124.168,190.997 124.501,149.663 125.5,108.5 Z"/></g>
<g><path style="opacity:1" fill="#242021" d="M 135.5,124.5 C 161.833,124.5 188.167,124.5 214.5,124.5C 214.5,127.833 214.5,131.167 214.5,134.5C 188.167,134.5 161.833,134.5 135.5,134.5C 135.5,131.167 135.5,127.833 135.5,124.5 Z"/></g>
<g><path style="opacity:1" fill="#302c2d" d="M 135.5,146.5 C 154.167,146.5 172.833,146.5 191.5,146.5C 191.5,150.167 191.5,153.833 191.5,157.5C 172.833,157.5 154.167,157.5 135.5,157.5C 135.5,153.833 135.5,150.167 135.5,146.5 Z"/></g>
<g><path style="opacity:1" fill="#f8f8f8" d="M 221.5,151.5 C 249.904,150.071 263.404,163.405 262,191.5C 258.944,204.89 250.777,213.39 237.5,217C 216.887,219.778 203.387,211.278 197,191.5C 195.074,171.937 203.24,158.603 221.5,151.5 Z"/></g>
<g><path style="opacity:1" fill="#c0bebf" d="M 135.5,169.5 C 149.657,168.504 163.99,168.171 178.5,168.5C 178.815,172.371 178.482,176.038 177.5,179.5C 177.5,176.167 177.5,172.833 177.5,169.5C 163.5,169.5 149.5,169.5 135.5,169.5 Z"/></g>
<g><path style="opacity:1" fill="#252122" d="M 135.5,169.5 C 149.5,169.5 163.5,169.5 177.5,169.5C 177.5,172.833 177.5,176.167 177.5,179.5C 163.5,179.5 149.5,179.5 135.5,179.5C 135.5,176.167 135.5,172.833 135.5,169.5 Z"/></g>
<g><path style="opacity:1" fill="#252123" d="M 226.5,157.5 C 229.167,157.5 231.833,157.5 234.5,157.5C 234.5,160.167 234.5,162.833 234.5,165.5C 238.599,165.367 242.266,166.533 245.5,169C 244.435,171.406 243.102,173.573 241.5,175.5C 236.566,172.601 231.399,171.934 226,173.5C 225.28,175.112 225.446,176.612 226.5,178C 231.447,180.152 236.447,182.152 241.5,184C 246.998,190.219 246.665,196.219 240.5,202C 238.564,202.813 236.564,203.313 234.5,203.5C 234.5,206.5 234.5,209.5 234.5,212.5C 231.833,212.5 229.167,212.5 226.5,212.5C 226.5,209.5 226.5,206.5 226.5,203.5C 221.249,203.373 216.916,201.373 213.5,197.5C 214.657,195.322 215.99,193.322 217.5,191.5C 222.389,195.945 228.055,197.445 234.5,196C 237.321,193.283 236.987,190.95 233.5,189C 228.5,188.251 223.833,186.584 219.5,184C 216.151,179.522 215.651,174.688 218,169.5C 220.326,166.989 223.159,165.656 226.5,165.5C 226.5,162.833 226.5,160.167 226.5,157.5 Z"/></g>
<g><path style="opacity:1" fill="#221e1f" d="M 135.5,191.5 C 149.5,191.5 163.5,191.5 177.5,191.5C 177.5,194.833 177.5,198.167 177.5,201.5C 163.5,201.5 149.5,201.5 135.5,201.5C 135.5,198.167 135.5,194.833 135.5,191.5 Z"/></g>
<g><path style="opacity:1" fill="#2e2b2c" d="M 135.5,213.5 C 154.167,213.5 172.833,213.5 191.5,213.5C 191.5,217.167 191.5,220.833 191.5,224.5C 172.833,224.5 154.167,224.5 135.5,224.5C 135.5,220.833 135.5,217.167 135.5,213.5 Z"/></g>
<g><path style="opacity:1" fill="#fcfcfc" d="M 198.5,254.5 C 167.004,255.498 135.338,255.832 103.5,255.5C 101.097,255.607 99.2635,254.607 98,252.5C 96.6842,249.312 96.1842,245.978 96.5,242.5C 129.833,242.5 163.167,242.5 196.5,242.5C 196.191,246.705 196.857,250.705 198.5,254.5 Z"/></g>
<g><path style="opacity:1" fill="#858182" d="M 198.5,254.5 C 199.043,254.56 199.376,254.893 199.5,255.5C 167.336,256.83 135.336,256.83 103.5,255.5C 135.338,255.832 167.004,255.498 198.5,254.5 Z"/></g>
</svg>
