<svg xmlns="http://www.w3.org/2000/svg" xmlns:xlink="http://www.w3.org/1999/xlink" xmlns:inkscape="http://www.inkscape.org/namespaces/inkscape" version="1.1" width="27.3828" height="27.2507" viewBox="0 0 27.3828 27.2507">
<defs>
<clipPath id="clip_0">
<path transform="matrix(1,0,0,-1,0,27.2507)" d="M0 27.251H27.383V0H0Z"/>
</clipPath>
</defs>
<g inkscape:groupmode="layer" inkscape:label="Layer 1">
<g clip-path="url(#clip_0)">
<path transform="matrix(1,0,0,-1,13.7575,2.4510003)" d="M0 0C6.171 0 11.174-5.003 11.174-11.174 11.174-17.346 6.171-22.349 0-22.349-6.171-22.349-11.174-17.346-11.174-11.174-11.174-5.003-6.171 0 0 0" fill="#82837e"/>
<path transform="matrix(1,0,0,-1,13.7575,2.4762)" d="M0 0C-6.148 0-11.149-5.001-11.149-11.149-11.149-17.297-6.148-22.298 0-22.298 6.148-22.298 11.149-17.297 11.149-11.149 11.149-5.001 6.148 0 0 0M0-22.349C-6.175-22.349-11.2-17.325-11.2-11.149-11.2-4.974-6.175 .05 0 .05 6.175 .05 11.2-4.974 11.2-11.149 11.2-17.325 6.175-22.349 0-22.349" fill="#b5b7b4"/>
<path transform="matrix(1,0,0,-1,24.7639,12.0743)" d="M0 0C-1.615 1.767-2.6 4.056-2.774 6.444L-1.518 6.535C-1.365 4.428-.496 2.409 .929 .85Z" fill="#14468a"/>
<path transform="matrix(1,0,0,-1,14.8571,25.403801)" d="M0 0-.56 .837C1.265 2.059 3.432 2.775 5.705 2.908L5.764 1.902C3.67 1.78 1.677 1.122 0 0" fill="#ee1929"/>
<path transform="matrix(1,0,0,-1,2.7771,12.4683)" d="M0 0-.798 .615C.641 2.482 1.434 4.852 1.434 7.288H2.441C2.441 4.631 1.574 2.043 0 0" fill="#ffffff"/>
<path transform="matrix(1,0,0,-1,24.7001,13.6753)" d="M0 0C-1.317 1.139-2.37 2.591-3.043 4.197-3.716 5.803-4.014 7.571-3.903 9.309L-2.897 9.245C-3.102 6.036-1.773 2.865 .659 .762Z" fill="#14468a"/>
<path transform="matrix(1,0,0,-1,24.5885,15.203)" d="M0 0C-3.545 2.598-5.446 6.926-4.962 11.294L-3.961 11.183C-4.405 7.172-2.659 3.198 .596 .812Z" fill="#14468a"/>
<path transform="matrix(1,0,0,-1,24.4241,16.3827)" d="M0 0C-4.312 2.8-6.61 7.895-5.853 12.981L-4.857 12.832C-5.555 8.136-3.434 3.431 .549 .845Z" fill="#14468a"/>
<path transform="matrix(1,0,0,-1,24.052,17.5131)" d="M0 0C-2.501 1.502-4.452 3.703-5.642 6.366-6.833 9.029-7.172 11.95-6.623 14.815L-5.634 14.626C-6.668 9.225-4.196 3.694 .519 .864Z" fill="#14468a"/>
<path transform="matrix(1,0,0,-1,23.5532,18.6271)" d="M0 0C-5.542 3.299-8.482 9.863-7.315 16.335L-6.323 16.156C-7.416 10.096-4.668 3.951 .515 .866Z" fill="#14468a"/>
<path transform="matrix(1,0,0,-1,22.9742,19.6631)" d="M0 0C-2.869 1.704-5.145 4.246-6.58 7.352-8.013 10.453-8.505 13.892-8 17.296L-6.995 17.147C-7.957 10.654-4.938 4.114 .519 .873Z" fill="#14468a"/>
<path transform="matrix(1,0,0,-1,12.9954,25.3166)" d="M0 0-.64 .778C1.842 2.82 5.104 3.956 8.543 3.977L8.55 2.97C5.34 2.95 2.304 1.895 0 0" fill="#ee1929"/>
<path transform="matrix(1,0,0,-1,11.4908,25.0088)" d="M0 0-.681 .743C.792 2.093 2.693 3.192 4.816 3.921 6.928 4.647 9.274 5.012 11.604 4.977L11.589 3.97C11.491 3.971 11.392 3.972 11.295 3.972 6.929 3.972 2.725 2.498 0 0" fill="#ee1929"/>
<path transform="matrix(1,0,0,-1,2.7363,14.2169)" d="M0 0-.728 .724C1.3 2.765 2.463 5.693 2.463 8.758H3.49C3.49 5.424 2.218 2.231 0 0" fill="#ffffff"/>
<path transform="matrix(1,0,0,-1,2.9253,15.6419)" d="M0 0-.654 .766C2.116 3.129 3.72 7.212 3.53 11.422L4.537 11.467C4.637 9.244 4.273 7.012 3.485 5.013 2.692 3.002 1.487 1.268 0 0" fill="#ffffff"/>
<path transform="matrix(1,0,0,-1,3.1683,17.1291)" d="M0 0-.607 .804C2.742 3.335 4.784 8.498 4.597 13.959L5.603 13.993C5.701 11.156 5.232 8.349 4.248 5.876 3.255 3.382 1.786 1.35 0 0" fill="#ffffff"/>
<path transform="matrix(1,0,0,-1,3.4726,18.328202)" d="M0 0-.539 .851C3.373 3.329 5.773 9.272 5.433 15.639L6.439 15.692C6.797 8.973 4.21 2.667 0 0" fill="#ffffff"/>
<path transform="matrix(1,0,0,-1,3.9306,19.321)" d="M0 0-.521 .905C1.528 2.084 3.27 4.245 4.516 7.153 5.778 10.099 6.418 13.548 6.366 17.128L7.41 17.143C7.52 9.505 4.542 2.615 0 0" fill="#ffffff"/>
<path transform="matrix(1,0,0,-1,14.3162,9.994499)" d="M0 0C-.75 2.639-.926 5.473-.506 8.193L.496 8.039C.099 5.461 .265 2.777 .976 .277Z" fill="#14468a"/>
<path transform="matrix(1,0,0,-1,12.3882,5.8589)" d="M0 0C-.059 1.194-.013 2.4 .138 3.584L1.144 3.455C1 2.331 .956 1.185 1.012 .05Z" fill="#ffffff"/>
<path transform="matrix(1,0,0,-1,5.3946,21.2454)" d="M0 0-.563 .836C.312 1.424 1.142 2.121 1.905 2.906L2.628 2.203C1.816 1.369 .932 .627 0 0" fill="#ffffff"/>
<path transform="matrix(1,0,0,-1,4.611,20.4133)" d="M0 0-.586 .819C2.381 2.943 4.699 6.225 5.942 10.061L6.9 9.751C5.592 5.711 3.141 2.248 0 0" fill="#ffffff"/>
<path transform="matrix(1,0,0,-1,11.2344,5.8267)" d="M0 0C-.043 1.079-.004 2.17 .117 3.242L1.118 3.13C1.003 2.108 .965 1.069 1.007 .041Z" fill="#ffffff"/>
<path transform="matrix(1,0,0,-1,17.9924,17.006)" d="M0 0 .572-.628-.768-.935-1.27-.293Z" fill="#f7dd24"/>
<path transform="matrix(1,0,0,-1,18.9543,16.4959)" d="M0 0-.355-1.381 .276-1.993 .671-.868Z" fill="#82837e"/>
<path transform="matrix(1,0,0,-1,14.0567,9.621401)" d="M0 0 1.322-.049 1.46-.878 .247-.849Z" fill="#82837e"/>
<path transform="matrix(1,0,0,-1,11.364,6.5261)" d="M0 0 .809-.028C.809-.028 .661-1.386 .558-1.926 .455-2.465 .223-3.265 .223-3.265L-.53-3.098C-.53-3.098-.256-2.08-.167-1.563-.079-1.046 0 0 0 0Z" fill="#f7dd24"/>
<path transform="matrix(1,0,0,-1,12.6757,6.5261)" d="M0 0H.726L.586-1.34 .279-3.014-.167-1.256Z" fill="#f7dd24"/>
<path transform="matrix(1,0,0,-1,13.513,7.0842)" d="M0 0-.391-2.261C-.391-2.261 .274-4.806 .821-5.996 1.122-6.651 1.554-7.453 2.101-8.315 2.648-9.176 3.293-10.047 3.293-10.047L4.103-9.824C4.103-9.824 3.401-8.913 2.832-8.03 2.264-7.148 1.85-6.366 1.535-5.638 1.224-4.919 .792-3.936 .477-2.693 .161-1.45 0 0 0 0Z" fill="#f7dd24"/>
<path transform="matrix(1,0,0,-1,14.7165,10.4762)" d="M0 0 .722 .015C1.457-2.121 2.584-4.283 4.212-6.052L4.043-7.074C4.043-7.074 3.31-6.306 2.843-5.679 2.377-5.051 1.805-4.24 1.308-3.278 .812-2.317 0 0 0 0Z" fill="#f7dd24"/>
<path transform="matrix(1,0,0,-1,12.2571,7.3353998)" d="M0 0-.419-2.205C-.419-2.205 .043-3.745 .335-4.493 .802-5.692 1.312-6.879 1.926-8.01 2.395-8.874 2.932-9.703 3.517-10.494 3.901-11.014 4.772-11.973 4.772-11.973L4.912-11.024C4.912-11.024 3.396-8.982 2.735-7.87 2.233-7.026 1.728-6.104 1.368-5.191 1.045-4.376 .809-3.555 .586-2.707 .351-1.814 0 0 0 0" fill="#f7dd24"/>
<path transform="matrix(1,0,0,-1,11.8943,10.4613)" d="M0 0 .407-1.159C.407-1.159-.211-2.668-.558-3.405-.888-4.105-1.208-4.814-1.619-5.47-2.186-6.377-3.544-8.038-3.544-8.038L-4.075-7.452C-4.075-7.452-2.868-5.907-2.344-5.079-1.886-4.355-1.48-3.596-1.116-2.819-.688-1.903 0 0 0 0Z" fill="#f7dd24"/>
<path transform="matrix(1,0,0,-1,13.2618,16.0152)" d="M0 0 .698 .279 1.061-.419-.614-1.116Z" fill="#ee1929"/>
<path transform="matrix(1,0,0,-1,12.9269,13.8383)" d="M0 0 .474-.921C.474-.921 .024-1.925-.236-2.408-.471-2.845-1.005-3.684-1.005-3.684L-2.456-4.382C-2.456-4.382-1.515-3.053-1.116-2.344-.692-1.59 0 0 0 0Z" fill="#ffffff"/>
<path transform="matrix(1,0,0,-1,12.4034,12.3128)" d="M0 0 .356-1.023C.356-1.023-.383-2.775-1.067-3.926-1.751-5.076-3.147-6.892-3.996-7.825-4.846-8.757-6.147-9.814-6.147-9.814L-6.761-9.368C-6.761-9.368-4.724-7.516-3.942-6.605-3.16-5.693-2.524-4.861-1.877-3.786-1.23-2.711 0 0 0 0Z" fill="#ffffff"/>
<path transform="matrix(1,0,0,-1,15.4108,17.6339)" d="M0 0 .586-.726C.586-.726-.216-.962-.614-1.116-1.012-1.271-1.814-1.675-1.814-1.675L-2.261-1.005C-2.261-1.005-1.442-.618-1.061-.447-.679-.275 0 0 0 0" fill="#f7dd24"/>
<path transform="matrix(1,0,0,-1,16.2202,18.6945)" d="M0 0 .53-.642C.53-.642-.824-1.068-1.479-1.34-2.11-1.601-2.725-1.9-3.321-2.233-3.957-2.587-5.163-3.405-5.163-3.405L-5.61-2.791C-5.61-2.791-4.148-1.833-3.377-1.423-2.781-1.107-2.157-.846-1.535-.586-1.03-.375 0 0 0 0Z" fill="#f7dd24"/>
<path transform="matrix(1,0,0,-1,14.6202,16.7113)" d="M0 0 .375-.75C.375-.75-1.19-1.368-1.973-1.737-2.757-2.106-3.553-2.576-4.223-3-4.894-3.423-5.522-3.814-6.078-4.282-6.635-4.75-7.657-5.763-7.657-5.763L-8.229-5.328C-8.229-5.328-7.711-4.888-7.213-4.428-6.875-4.114-6.577-3.792-6.335-3.592-5.736-3.098-5.279-2.743-4.657-2.348-4.036-1.954-3.27-1.506-2.605-1.164-1.94-.823-1.107-.499-.671-.296-.235-.093 0 0 0 0" fill="#ee1929"/>
<path transform="matrix(1,0,0,-1,9.9233,21.9212)" d="M0 0 .534-.694C.534-.694-.079-1.085-.316-1.263-.553-1.441-1.026-1.816-1.026-1.816L-1.737-1.46C-1.737-1.46-1.197-.954-.908-.71-.618-.467 0 0 0 0Z" fill="#ee1929"/>
<path transform="matrix(1,0,0,-1,7.3972,22.7501)" d="M0 0 .513-.395C.513-.395 1.362 .426 1.855 .829 2.348 1.232 2.914 1.631 3.473 2.013 4.033 2.395 5.289 3.079 5.289 3.079L4.855 3.592C4.855 3.592 3.514 2.95 2.921 2.566 2.328 2.181 1.789 1.733 1.302 1.303 .816 .872 0 0 0 0Z" fill="#ee1929"/>
<path transform="matrix(1,0,0,-1,15.4945,20.1737)" d="M0 0 .447-.698C.447-.698-.912-1.19-1.647-1.563-2.382-1.936-3.335-2.54-3.935-2.958-4.535-3.377-5.275-4.019-5.275-4.019L-6.084-3.74C-6.084-3.74-5.228-3.07-4.745-2.707-4.261-2.344-3.75-1.914-3.182-1.563-2.613-1.211-1.871-.872-1.34-.614-.808-.356 0 0 0 0Z" fill="#ee1929"/>
<path transform="matrix(1,0,0,-1,19.653,17.3827)" d="M0 0-.223-.865C-.223-.865 .544-1.637 .879-1.93 1.213-2.223 1.786-2.623 1.786-2.623L3.042-2.651C3.042-2.651 1.96-1.894 1.451-1.451 .943-1.009 0 0 0 0Z" fill="#14468a"/>
<path transform="matrix(1,0,0,-1,17.6593,18.051602)" d="M0 0 .888 .158 2.013-1.105 1.776-1.895Z" fill="#f7dd24"/>
<path transform="matrix(1,0,0,-1,16.3568,19.8869)" d="M0 0 2.112 .572 2.783-.099 .513-.691Z" fill="#f7dd24"/>
<path transform="matrix(1,0,0,-1,11.7831,7.0867006)" d="M0 0C.109 0 .197-.088 .197-.197 .197-.306 .109-.394 0-.394-.109-.394-.197-.306-.197-.197-.197-.088-.109 0 0 0" fill="#ffffff"/>
<path transform="matrix(1,0,0,-1,11.7831,7.089899)" d="M0 0C-.107 0-.194-.087-.194-.194-.194-.3-.107-.387 0-.387 .107-.387 .194-.3 .194-.194 .194-.087 .107 0 0 0M0-.394C-.11-.394-.2-.304-.2-.194-.2-.083-.11 .006 0 .006 .11 .006 .2-.083 .2-.194 .2-.304 .11-.394 0-.394" fill="#ffffff"/>
<path transform="matrix(1,0,0,-1,12.9483,7.4983999)" d="M0 0C.109 0 .197-.088 .197-.197 .197-.306 .109-.394 0-.394-.109-.394-.197-.306-.197-.197-.197-.088-.109 0 0 0" fill="#ffffff"/>
<path transform="matrix(1,0,0,-1,12.9483,7.5016005)" d="M0 0C-.107 0-.194-.087-.194-.194-.194-.3-.107-.387 0-.387 .107-.387 .194-.3 .194-.194 .194-.087 .107 0 0 0M0-.394C-.11-.394-.2-.304-.2-.194-.2-.083-.11 .006 0 .006 .11 .006 .2-.083 .2-.194 .2-.304 .11-.394 0-.394" fill="#ffffff"/>
<path transform="matrix(1,0,0,-1,12.2715,9.5079)" d="M0 0C.109 0 .197-.088 .197-.197 .197-.306 .109-.394 0-.394-.109-.394-.197-.306-.197-.197-.197-.088-.109 0 0 0" fill="#ffffff"/>
<path transform="matrix(1,0,0,-1,12.2715,9.511)" d="M0 0C-.107 0-.194-.087-.194-.194-.194-.301-.107-.387 0-.387 .107-.387 .194-.301 .194-.194 .194-.087 .107 0 0 0M0-.394C-.11-.394-.2-.304-.2-.194-.2-.083-.11 .006 0 .006 .11 .006 .2-.083 .2-.194 .2-.304 .11-.394 0-.394" fill="#ffffff"/>
<path transform="matrix(1,0,0,-1,12.5506,10.2544)" d="M0 0C.109 0 .197-.088 .197-.197 .197-.306 .109-.394 0-.394-.109-.394-.197-.306-.197-.197-.197-.088-.109 0 0 0" fill="#ffffff"/>
<path transform="matrix(1,0,0,-1,12.5506,10.257601)" d="M0 0C-.107 0-.194-.087-.194-.194-.194-.301-.107-.387 0-.387 .107-.387 .194-.301 .194-.194 .194-.087 .107 0 0 0M0-.394C-.11-.394-.2-.304-.2-.194-.2-.083-.11 .006 0 .006 .11 .006 .2-.083 .2-.194 .2-.304 .11-.394 0-.394" fill="#ffffff"/>
<path transform="matrix(1,0,0,-1,13.8693,10.631201)" d="M0 0C.109 0 .197-.088 .197-.197 .197-.306 .109-.394 0-.394-.109-.394-.197-.306-.197-.197-.197-.088-.109 0 0 0" fill="#ffffff"/>
<path transform="matrix(1,0,0,-1,13.8693,10.634399)" d="M0 0C-.107 0-.194-.087-.194-.194-.194-.301-.107-.387 0-.387 .107-.387 .194-.301 .194-.194 .194-.087 .107 0 0 0M0-.394C-.11-.394-.2-.304-.2-.194-.2-.083-.11 .006 0 .006 .11 .006 .2-.083 .2-.194 .2-.304 .11-.394 0-.394" fill="#ffffff"/>
<path transform="matrix(1,0,0,-1,13.3391,12.6756)" d="M0 0C.109 0 .197-.088 .197-.197 .197-.306 .109-.394 0-.394-.109-.394-.197-.306-.197-.197-.197-.088-.109 0 0 0" fill="#ffffff"/>
<path transform="matrix(1,0,0,-1,13.3391,12.6787)" d="M0 0C-.107 0-.194-.087-.194-.194-.194-.301-.107-.387 0-.387 .107-.387 .194-.301 .194-.194 .194-.087 .107 0 0 0M0-.394C-.11-.394-.2-.304-.2-.194-.2-.083-.11 .006 0 .006 .11 .006 .2-.083 .2-.194 .2-.304 .11-.394 0-.394" fill="#ffffff"/>
<path transform="matrix(1,0,0,-1,10.7295,13.9594)" d="M0 0C.109 0 .197-.088 .197-.197 .197-.306 .109-.394 0-.394-.109-.394-.197-.306-.197-.197-.197-.088-.109 0 0 0" fill="#ffffff"/>
<path transform="matrix(1,0,0,-1,10.7296,13.9626)" d="M0 0C-.107 0-.194-.087-.194-.194-.194-.3-.107-.387 0-.387 .107-.387 .194-.3 .194-.194 .194-.087 .107 0 0 0M0-.394C-.11-.394-.2-.304-.2-.194-.2-.083-.11 .006 0 .006 .11 .006 .2-.083 .2-.194 .2-.304 .11-.394 0-.394" fill="#ffffff"/>
<path transform="matrix(1,0,0,-1,14.267,14.5734)" d="M0 0C.109 0 .197-.088 .197-.197 .197-.306 .109-.394 0-.394-.109-.394-.197-.306-.197-.197-.197-.088-.109 0 0 0" fill="#ffffff"/>
<path transform="matrix(1,0,0,-1,14.267,14.5765)" d="M0 0C-.107 0-.194-.087-.194-.194-.194-.301-.107-.387 0-.387 .107-.387 .194-.301 .194-.194 .194-.087 .107 0 0 0M0-.394C-.11-.394-.2-.304-.2-.194-.2-.083-.11 .006 0 .006 .11 .006 .2-.083 .2-.194 .2-.304 .11-.394 0-.394" fill="#ffffff"/>
<path transform="matrix(1,0,0,-1,14.6438,18.2644)" d="M0 0C.109 0 .197-.088 .197-.197 .197-.306 .109-.394 0-.394-.109-.394-.197-.306-.197-.197-.197-.088-.109 0 0 0" fill="#ffffff"/>
<path transform="matrix(1,0,0,-1,14.6438,18.267601)" d="M0 0C-.107 0-.194-.087-.194-.194-.194-.3-.107-.387 0-.387 .107-.387 .194-.3 .194-.194 .194-.087 .107 0 0 0M0-.394C-.11-.394-.2-.304-.2-.194-.2-.083-.11 .006 0 .006 .11 .006 .2-.083 .2-.194 .2-.304 .11-.394 0-.394" fill="#ffffff"/>
<path transform="matrix(1,0,0,-1,11.1507,21.3233)" d="M0 0C.109 0 .197-.088 .197-.197 .197-.306 .109-.394 0-.394-.109-.394-.197-.306-.197-.197-.197-.088-.109 0 0 0" fill="#ffffff"/>
<path transform="matrix(1,0,0,-1,11.1507,21.3265)" d="M0 0C-.107 0-.194-.087-.194-.194-.194-.3-.107-.387 0-.387 .107-.387 .194-.3 .194-.194 .194-.087 .107 0 0 0M0-.394C-.11-.394-.2-.304-.2-.194-.2-.083-.11 .006 0 .006 .11 .006 .2-.083 .2-.194 .2-.304 .11-.394 0-.394" fill="#ffffff"/>
<path transform="matrix(1,0,0,-1,15.0977,19.2314)" d="M0 0C.109 0 .197-.088 .197-.197 .197-.306 .109-.394 0-.394-.109-.394-.197-.306-.197-.197-.197-.088-.109 0 0 0" fill="#ffffff"/>
<path transform="matrix(1,0,0,-1,15.0977,19.2346)" d="M0 0C-.107 0-.194-.087-.194-.194-.194-.3-.107-.387 0-.387 .107-.387 .194-.3 .194-.194 .194-.087 .107 0 0 0M0-.394C-.11-.394-.2-.304-.2-.194-.2-.083-.11 .006 0 .006 .11 .006 .2-.083 .2-.194 .2-.304 .11-.394 0-.394" fill="#ffffff"/>
<path transform="matrix(1,0,0,-1,16.2423,17.238202)" d="M0 0C.109 0 .197-.088 .197-.197 .197-.306 .109-.394 0-.394-.109-.394-.197-.306-.197-.197-.197-.088-.109 0 0 0" fill="#ffffff"/>
<path transform="matrix(1,0,0,-1,16.2423,17.241299)" d="M0 0C-.107 0-.194-.087-.194-.194-.194-.301-.107-.387 0-.387 .107-.387 .194-.301 .194-.194 .194-.087 .107 0 0 0M0-.394C-.11-.394-.2-.304-.2-.194-.2-.083-.11 .006 0 .006 .11 .006 .2-.083 .2-.194 .2-.304 .11-.394 0-.394" fill="#ffffff"/>
<path transform="matrix(1,0,0,-1,17.7619,17.179)" d="M0 0C.109 0 .197-.088 .197-.197 .197-.306 .109-.394 0-.394-.109-.394-.197-.306-.197-.197-.197-.088-.109 0 0 0" fill="#ffffff"/>
<path transform="matrix(1,0,0,-1,17.7619,17.182202)" d="M0 0C-.107 0-.194-.087-.194-.194-.194-.3-.107-.387 0-.387 .107-.387 .194-.3 .194-.194 .194-.087 .107 0 0 0M0-.394C-.11-.394-.2-.304-.2-.194-.2-.083-.11 .006 0 .006 .11 .006 .2-.083 .2-.194 .2-.304 .11-.394 0-.394" fill="#ffffff"/>
<path transform="matrix(1,0,0,-1,18.2158,19.5866)" d="M0 0C.109 0 .197-.088 .197-.197 .197-.306 .109-.394 0-.394-.109-.394-.197-.306-.197-.197-.197-.088-.109 0 0 0" fill="#ffffff"/>
<path transform="matrix(1,0,0,-1,18.2158,19.5898)" d="M0 0C-.107 0-.194-.087-.194-.194-.194-.3-.107-.387 0-.387 .107-.387 .194-.3 .194-.194 .194-.087 .107 0 0 0M0-.394C-.11-.394-.2-.304-.2-.194-.2-.083-.11 .006 0 .006 .11 .006 .2-.083 .2-.194 .2-.304 .11-.394 0-.394" fill="#ffffff"/>
<path transform="matrix(1,0,0,-1,18.8671,18.481499)" d="M0 0C.109 0 .197-.088 .197-.197 .197-.306 .109-.394 0-.394-.109-.394-.197-.306-.197-.197-.197-.088-.109 0 0 0" fill="#ffffff"/>
<path transform="matrix(1,0,0,-1,18.8671,18.4846)" d="M0 0C-.107 0-.194-.087-.194-.194-.194-.301-.107-.387 0-.387 .107-.387 .194-.301 .194-.194 .194-.087 .107 0 0 0M0-.394C-.11-.394-.2-.304-.2-.194-.2-.083-.11 .006 0 .006 .11 .006 .2-.083 .2-.194 .2-.304 .11-.394 0-.394" fill="#ffffff"/>
<path transform="matrix(1,0,0,-1,16.1385,13.1163)" d="M0 0C.109 0 .197-.088 .197-.197 .197-.306 .109-.394 0-.394-.109-.394-.197-.306-.197-.197-.197-.088-.109 0 0 0" fill="#ffffff"/>
<path transform="matrix(1,0,0,-1,16.1386,13.1195)" d="M0 0C-.107 0-.194-.087-.194-.194-.194-.3-.107-.387 0-.387 .107-.387 .194-.3 .194-.194 .194-.087 .107 0 0 0M0-.394C-.11-.394-.2-.304-.2-.194-.2-.083-.11 .006 0 .006 .11 .006 .2-.083 .2-.194 .2-.304 .11-.394 0-.394" fill="#ffffff"/>
<path transform="matrix(1,0,0,-1,15.7669,14.7313)" d="M0 0C.109 0 .197-.088 .197-.197 .197-.306 .109-.394 0-.394-.109-.394-.197-.306-.197-.197-.197-.088-.109 0 0 0" fill="#ffffff"/>
<path transform="matrix(1,0,0,-1,15.7669,14.7344)" d="M0 0C-.107 0-.194-.087-.194-.194-.194-.301-.107-.387 0-.387 .107-.387 .194-.301 .194-.194 .194-.087 .107 0 0 0M0-.394C-.11-.394-.2-.304-.2-.194-.2-.083-.11 .006 0 .006 .11 .006 .2-.083 .2-.194 .2-.304 .11-.394 0-.394" fill="#ffffff"/>
<path transform="matrix(1,0,0,-1,10.8029,14.1617)" d="M0 0 3.844-4.225 3.847-4.231 4.333-5.102 5.38-3.271 4.895-.85 5.271 .804 3.423-.677 2.465 1.209 3.004 3.237ZM5.531-3.269 7.326-5.398 6.997-3.219ZM7.479-5.736 5.457-3.338 4.332-5.306 3.761-4.285-.069-.074-.096-.103-.18-.052-.154 .02-.17 .037-.138 .066 1.411 4.386 1.968 6.531 2.065 6.505 1.507 4.356-.002 .146 3.068 3.454 3.154 3.407 2.572 1.221 3.457-.521 5.433 1.064 4.998-.851 5.462-3.171 7.083-3.115Z" fill="#ffffff"/>
<path transform="matrix(1,0,0,-1,14.6534,18.4606)" d="M0 0-.098 .011-.433 3.779-.333 3.788-.019 .263 1.068 3.551-2.182 8.024-2.1 8.083 1.18 3.569 1.172 3.544Z" fill="#ffffff"/>
<path transform="matrix(1,0,0,-1,11.1496,21.607399)" d="M0 0-.056 .083 3.516 3.153 3.582 3.077 .337 .288 3.958 2.162 7.093 1.801 7.675 2.94 6.553 4.254 6.63 4.32 7.796 2.954 7.151 1.693 3.977 2.058Z" fill="#ffffff"/>
<path transform="matrix(1,0,0,-1,17.7574,17.4357)" d="M0 0-2.009 2.512-1.931 2.575 .079 .063Z" fill="#ffffff"/>
<path transform="matrix(1,0,0,-1,14.2173,14.7748)" d="M0 0-3.707 .525-.88 1.909-.836 1.819-3.368 .579 .014 .1Z" fill="#ffffff"/>
<path transform="matrix(1,0,0,-1,12.4741,10.498699)" d="M0 0-.246 .735-.743 3.21 .451 2.912 .426 2.814-.613 3.074-.149 .761 .096 .032Z" fill="#ffffff"/>
<path transform="matrix(1,0,0,-1,13.7575,3.0221005)" d="M0 0C-5.847 0-10.603-4.757-10.603-10.603-10.603-16.45-5.847-21.207 0-21.207 5.847-21.207 10.603-16.45 10.603-10.603 10.603-4.757 5.847 0 0 0M0-24.229C-7.513-24.229-13.625-18.116-13.625-10.603-13.625-3.09-7.513 3.022 0 3.022 7.513 3.022 13.625-3.09 13.625-10.603 13.625-18.116 7.513-24.229 0-24.229" fill="#ffffff"/>
<path transform="matrix(1,0,0,-1,13.757,2.7381)" d="M0 0C-6.004 0-10.888-4.881-10.888-10.881-10.888-16.881-6.004-21.762 0-21.762 6.004-21.762 10.888-16.881 10.888-10.881 10.888-4.881 6.004 0 0 0M0-21.806C-6.028-21.806-10.933-16.905-10.933-10.881-10.933-4.857-6.028 .044 0 .044 6.028 .044 10.933-4.857 10.933-10.881 10.933-16.905 6.028-21.806 0-21.806" fill="#b5b7b3"/>
<path transform="matrix(1,0,0,-1,6.3196,23.8473)" d="M0 0C.098-.071 .236 .016 .415 .262 .583 .494 .619 .644 .523 .714 .43 .782 .296 .697 .123 .458-.051 .219-.092 .067 0 0ZM.656 .882C.901 .705 .898 .444 .649 .101 .52-.077 .388-.189 .254-.234 .12-.28-.01-.257-.135-.165-.374 .008-.367 .269-.113 .618 .013 .792 .143 .902 .275 .947 .408 .992 .535 .971 .656 .882" fill="#14468a"/>
<path transform="matrix(1,0,0,-1,4.6378,22.6988)" d="M0 0 .905 .931 1.105 .737 .42 .032C.44 .031 .462 .027 .486 .021 .509 .015 .533 .008 .557-.001 .58-.011 .603-.022 .627-.035 .649-.048 .671-.062 .69-.077L.526-.246C.459-.211 .391-.182 .322-.161 .253-.14 .186-.126 .121-.118Z" fill="#14468a"/>
<path transform="matrix(1,0,0,-1,3.7432,21.3418)" d="M0 0C.074-.096 .231-.051 .472 .135 .699 .309 .776 .444 .703 .538 .633 .629 .481 .585 .247 .405 .013 .225-.069 .09 0 0ZM.878 .662C1.063 .422 .987 .173 .651-.086 .477-.221 .319-.291 .178-.296 .036-.302-.082-.243-.177-.12-.357 .113-.276 .362 .066 .625 .236 .756 .391 .825 .531 .831 .671 .837 .787 .781 .878 .662Z" fill="#14468a"/>
<path transform="matrix(1,0,0,-1,2.7486,19.839901)" d="M0 0C.059-.105 .222-.083 .486 .066 .736 .207 .831 .329 .773 .432 .716 .533 .559 .511 .302 .366 .045 .221-.056 .099 0 0M.964 .53C1.112 .267 1.002 .031 .632-.178 .44-.286 .274-.333 .134-.319-.007-.304-.116-.229-.192-.094-.337 .163-.222 .397 .154 .61 .341 .715 .504 .761 .644 .747 .783 .733 .89 .661 .964 .53" fill="#14468a"/>
<path transform="matrix(1,0,0,-1,1.9775,18.2123)" d="M0 0C.044-.113 .208-.114 .491-.004 .757 .1 .869 .208 .826 .318 .784 .426 .626 .426 .351 .319 .076 .212-.041 .106 0 0ZM1.029 .388C1.139 .106 .996-.112 .601-.266 .395-.346 .224-.369 .088-.335-.05-.3-.147-.211-.203-.066-.31 .209-.163 .425 .239 .582 .439 .66 .607 .682 .743 .648 .879 .615 .974 .528 1.029 .388Z" fill="#14468a"/>
<path transform="matrix(1,0,0,-1,1.1826,16.3376)" d="M0 0 1.264 .295 1.327 .023 .37-.2C.387-.212 .404-.227 .421-.245 .437-.262 .453-.281 .468-.302 .482-.323 .496-.345 .509-.368 .521-.391 .531-.414 .539-.438L.31-.491C.273-.425 .231-.365 .184-.31 .137-.255 .089-.206 .038-.165L0 0C0 0 0 0 0 0" fill="#14468a"/>
<path transform="matrix(1,0,0,-1,1.1621,14.7129)" d="M0 0C.01-.121 .167-.168 .47-.141 .755-.117 .893-.045 .882 .073 .872 .188 .72 .233 .426 .208 .132 .182-.01 .113 0 0M1.097 .083C1.123-.218 .924-.387 .502-.424 .282-.443 .112-.417-.01-.346-.132-.274-.2-.161-.214-.006-.239 .288-.037 .454 .393 .491 .607 .51 .774 .484 .895 .413 1.016 .343 1.084 .233 1.097 .083Z" fill="#14468a"/>
<path transform="matrix(1,0,0,-1,1.1353,12.9114)" d="M0 0C-.007-.121 .142-.19 .445-.207 .731-.223 .877-.172 .884-.053 .89 .062 .746 .128 .452 .145 .157 .161 .006 .113 0 0M1.097-.074C1.08-.376 .86-.515 .436-.491 .216-.479 .051-.429-.059-.341-.17-.252-.221-.131-.212 .024-.196 .319 .028 .454 .459 .43 .673 .418 .835 .368 .945 .281 1.055 .194 1.106 .076 1.097-.074" fill="#14468a"/>
<path transform="matrix(1,0,0,-1,1.9448,9.1224)" d="M0 0C-.043-.113 .078-.224 .362-.332 .629-.434 .784-.429 .826-.318 .867-.21 .75-.103 .474 .001 .198 .106 .04 .106 0 0M1.023-.403C.916-.685 .664-.751 .267-.6 .061-.522-.081-.424-.159-.307-.238-.189-.25-.058-.195 .087-.09 .363 .164 .424 .567 .271 .768 .195 .908 .098 .986-.018 1.064-.134 1.077-.262 1.023-.403" fill="#14468a"/>
<path transform="matrix(1,0,0,-1,2.6133,7.1984007)" d="M0 0 1.135-.629 1-.873 .14-.397C.145-.417 .147-.439 .148-.464 .148-.487 .147-.512 .144-.538 .141-.563 .136-.588 .13-.614 .124-.639 .116-.663 .106-.687L-.1-.572C-.083-.499-.074-.426-.071-.353-.069-.281-.073-.212-.082-.148L0 0Z" fill="#14468a"/>
<path transform="matrix(1,0,0,-1,3.689,5.9799997)" d="M0 0C-.073-.096 .011-.236 .253-.42 .481-.593 .631-.633 .703-.538 .773-.446 .69-.311 .455-.132 .22 .046 .069 .09 0 0M.868-.675C.686-.915 .425-.908 .087-.651-.088-.518-.197-.384-.239-.25-.282-.114-.256 .015-.162 .139 .016 .374 .277 .361 .621 .1 .792-.03 .899-.162 .941-.295 .984-.428 .959-.555 .868-.675" fill="#14468a"/>
<path transform="matrix(1,0,0,-1,4.8781,4.627001)" d="M0 0C-.086-.085-.022-.236 .191-.452 .392-.656 .535-.716 .619-.633 .702-.551 .639-.406 .432-.196 .225 .014 .081 .08 0 0M.764-.791C.549-1.004 .292-.959-.006-.657-.161-.5-.25-.352-.272-.213-.295-.073-.252 .052-.141 .161 .069 .368 .326 .318 .629 .011 .78-.142 .866-.288 .889-.426 .913-.564 .871-.686 .764-.791Z" fill="#14468a"/>
<path transform="matrix(1,0,0,-1,6.2847,3.1546994)" d="M0 0 .772-1.044 .547-1.21-.037-.419C-.041-.439-.048-.461-.058-.483-.067-.505-.079-.527-.092-.549-.105-.571-.12-.592-.136-.613-.153-.633-.17-.652-.188-.669L-.328-.479C-.283-.419-.244-.357-.212-.292-.179-.227-.154-.163-.136-.101L0 0C0 0 0 0 0 0" fill="#14468a"/>
<path transform="matrix(1,0,0,-1,7.768,2.4923)" d="M0 0C-.107-.057-.088-.22 .056-.488 .192-.74 .312-.837 .417-.781 .519-.726 .5-.569 .36-.309 .22-.049 .1 .054 0 0M.511-.974C.245-1.117 .011-1.002-.19-.629-.295-.435-.338-.268-.321-.128-.304 .013-.227 .12-.09 .194 .17 .334 .402 .214 .606-.166 .708-.355 .751-.519 .734-.659 .718-.797 .643-.903 .511-.974Z" fill="#14468a"/>
<path transform="matrix(1,0,0,-1,9.411,1.7535992)" d="M0 0C-.114-.042-.118-.205-.013-.491 .085-.759 .19-.873 .301-.832 .41-.793 .414-.634 .312-.357 .21-.08 .106 .039 0 0M.367-1.037C.083-1.141-.132-.993-.278-.595-.354-.388-.373-.217-.336-.081-.299 .056-.208 .151-.062 .205 .215 .306 .428 .154 .577-.251 .651-.452 .669-.621 .633-.756 .597-.891 .508-.985 .367-1.037Z" fill="#14468a"/>
<path transform="matrix(1,0,0,-1,11.3025,.9972992)" d="M0 0 .269-1.27-.004-1.328-.208-.366C-.22-.383-.235-.399-.253-.416-.271-.431-.29-.447-.311-.461-.333-.475-.355-.489-.378-.501-.402-.512-.425-.522-.449-.53L-.498-.3C-.431-.264-.37-.223-.314-.178-.257-.132-.208-.084-.165-.035Z" fill="#14468a"/>
<path transform="matrix(1,0,0,-1,15.0114,1.0457001)" d="M0 0C-.12 .012-.196-.133-.226-.436-.254-.721-.209-.869-.091-.881 .024-.892 .097-.751 .126-.457 .155-.164 .113-.011 0 0ZM-.121-1.093C-.421-1.063-.551-.837-.509-.415-.487-.196-.43-.033-.338 .073-.245 .181-.121 .226 .033 .211 .327 .182 .453-.047 .41-.477 .389-.69 .333-.85 .241-.956 .15-1.062 .029-1.108-.121-1.093Z" fill="#14468a"/>
<path transform="matrix(1,0,0,-1,17.0435,1.1875)" d="M0 0-.311-1.26-.581-1.194-.346-.239C-.364-.249-.385-.257-.409-.264-.432-.271-.456-.276-.481-.28-.506-.283-.532-.286-.558-.286-.585-.287-.61-.285-.635-.282L-.579-.053C-.503-.05-.43-.04-.36-.024-.289-.007-.224 .014-.164 .04L0 0Z" fill="#14468a"/>
<path transform="matrix(1,0,0,-1,18.5008,1.9067993)" d="M0 0C-.112 .045-.225-.073-.339-.355-.447-.62-.445-.775-.335-.819-.228-.863-.119-.748-.008-.474 .102-.201 .105-.043 0 0ZM-.424-1.015C-.704-.901-.765-.648-.605-.255-.523-.05-.422 .09-.303 .166-.184 .242-.052 .251 .092 .193 .365 .082 .421-.173 .259-.573 .178-.772 .079-.91-.039-.985-.156-1.061-.284-1.071-.424-1.015Z" fill="#14468a"/>
<path transform="matrix(1,0,0,-1,20.1178,2.7003003)" d="M0 0C-.105 .061-.233-.04-.386-.303-.53-.55-.551-.704-.448-.763-.348-.822-.224-.723-.076-.468 .073-.213 .098-.057 0 0M-.564-.944C-.825-.792-.849-.533-.635-.166-.525 .024-.405 .149-.277 .207-.148 .266-.016 .256 .118 .178 .373 .03 .392-.231 .175-.604 .067-.79-.051-.912-.178-.97-.305-1.028-.434-1.02-.564-.944Z" fill="#14468a"/>
<path transform="matrix(1,0,0,-1,21.6057,3.714899)" d="M0 0C-.095 .075-.237-.007-.425-.245-.603-.469-.645-.619-.552-.692-.461-.764-.324-.684-.141-.453 .042-.221 .089-.07 0 0M-.692-.855C-.929-.667-.916-.407-.653-.074-.516 .098-.38 .205-.245 .244-.109 .284 .02 .256 .142 .16 .374-.023 .355-.284 .088-.623-.046-.791-.179-.895-.314-.935-.448-.975-.574-.948-.692-.855Z" fill="#14468a"/>
<path transform="matrix(1,0,0,-1,22.9347,4.9305)" d="M0 0C-.083 .088-.235 .027-.456-.182-.663-.379-.726-.521-.645-.607-.565-.691-.418-.631-.204-.428 .01-.225 .078-.082 0 0M-.806-.748C-1.014-.529-.964-.273-.656 .019-.497 .171-.347 .257-.208 .277-.067 .297 .057 .25 .163 .138 .366-.076 .311-.332-.002-.629-.157-.777-.305-.861-.443-.881-.582-.901-.703-.857-.806-.748" fill="#14468a"/>
<path transform="matrix(1,0,0,-1,24.3789,6.3668997)" d="M0 0-1.059-.75-1.22-.523-.418 .045C-.438 .05-.46 .058-.482 .068-.503 .078-.525 .09-.547 .103-.568 .117-.589 .132-.61 .149-.63 .166-.648 .183-.665 .202L-.473 .338C-.413 .291-.352 .251-.287 .217-.223 .184-.16 .158-.098 .138L0 0Z" fill="#14468a"/>
<path transform="matrix(1,0,0,-1,25.3025,7.9507009)" d="M0 0-1.155-.591-1.282-.343-.408 .105C-.427 .112-.447 .122-.467 .136-.487 .149-.507 .163-.527 .18-.546 .197-.564 .215-.582 .234-.6 .254-.615 .274-.629 .295L-.42 .402C-.368 .347-.312 .298-.253 .256-.195 .214-.136 .179-.077 .151Z" fill="#14468a"/>
<path transform="matrix(1,0,0,-1,26.227,11.5429)" d="M0 0C-.02 .119-.18 .154-.48 .104-.762 .056-.893-.026-.874-.143-.855-.257-.7-.29-.408-.241-.117-.192 .019-.112 0 0ZM-1.087-.17C-1.137 .128-.952 .313-.534 .383-.317 .419-.145 .407-.018 .345 .11 .284 .187 .176 .212 .023 .261-.268 .073-.449-.353-.521-.564-.556-.734-.543-.86-.483-.986-.422-1.062-.318-1.087-.17" fill="#14468a"/>
<path transform="matrix(1,0,0,-1,26.6218,13.5413)" d="M0 0-1.298-.03-1.304 .249-.322 .272C-.335 .287-.349 .305-.362 .326-.374 .346-.385 .368-.396 .391-.406 .415-.415 .439-.423 .464-.43 .489-.435 .514-.438 .539L-.203 .544C-.18 .472-.151 .404-.117 .341-.082 .277-.045 .22-.004 .169L0 0Z" fill="#14468a"/>
<path transform="matrix(1,0,0,-1,26.3089,15.136)" d="M0 0C.014 .12-.129 .198-.431 .235-.715 .269-.864 .227-.879 .109-.892-.006-.753-.081-.46-.116-.167-.151-.014-.113 0 0ZM-1.09 .144C-1.054 .444-.825 .568-.404 .518-.186 .491-.024 .431 .081 .336 .186 .241 .229 .116 .21-.038 .175-.331-.057-.452-.485-.4-.698-.374-.857-.315-.961-.221-1.065-.127-1.108-.006-1.09 .144" fill="#14468a"/>
<path transform="matrix(1,0,0,-1,26.125,17.164)" d="M0 0-1.254 .336-1.181 .606-.232 .351C-.241 .369-.249 .39-.256 .414-.262 .437-.266 .461-.27 .487-.273 .512-.275 .538-.275 .564-.275 .59-.273 .616-.269 .641L-.042 .579C-.04 .504-.031 .431-.016 .36-.001 .289 .019 .224 .044 .163Z" fill="#14468a"/>
<path transform="matrix(1,0,0,-1,25.3767,18.6058)" d="M0 0C.048 .111-.068 .227-.348 .346-.611 .459-.766 .461-.813 .352-.858 .245-.745 .134-.474 .018-.203-.098-.045-.104 0 0M-1.006 .444C-.887 .722-.633 .777-.242 .61-.04 .524 .098 .42 .172 .3 .246 .179 .252 .047 .191-.095 .075-.367-.181-.417-.578-.248-.775-.163-.911-.061-.984 .058-1.058 .177-1.065 .306-1.006 .444" fill="#14468a"/>
<path transform="matrix(1,0,0,-1,24.6306,20.5007)" d="M0 0-1.109 .675-.964 .913-.124 .402C-.128 .422-.129 .445-.129 .469-.128 .493-.126 .518-.122 .543-.118 .568-.112 .593-.105 .619-.098 .644-.089 .668-.078 .69L.123 .568C.103 .495 .091 .422 .086 .35 .08 .278 .081 .209 .088 .144L0 0Z" fill="#14468a"/>
<path transform="matrix(1,0,0,-1,23.5064,21.6745)" d="M0 0C.077 .093-.002 .237-.236 .43-.457 .612-.605 .658-.681 .566-.754 .477-.677 .338-.45 .151-.222-.037-.072-.087 0 0ZM-.84 .709C-.648 .943-.388 .924-.061 .654 .109 .514 .212 .376 .249 .24 .286 .103 .255-.026 .157-.145-.031-.373-.291-.35-.624-.075-.79 .062-.891 .198-.928 .333-.965 .468-.936 .593-.84 .709Z" fill="#14468a"/>
<path transform="matrix(1,0,0,-1,22.2629,22.9781)" d="M0 0C.09 .081 .032 .235-.172 .459-.365 .671-.505 .737-.593 .657-.679 .58-.622 .431-.424 .213-.225-.005-.084-.076 0 0ZM-.731 .822C-.507 1.025-.252 .97 .033 .656 .181 .493 .264 .342 .281 .202 .298 .061 .249-.062 .134-.166-.084-.365-.338-.304-.629 .015-.773 .174-.854 .323-.871 .462-.889 .601-.842 .721-.731 .822" fill="#14468a"/>
<path transform="matrix(1,0,0,-1,9.1362,24.5124)" d="M0 0C.223 0 .403-.18 .403-.403 .403-.625 .223-.806 0-.806-.223-.806-.403-.625-.403-.403-.403-.18-.223 0 0 0" fill="#14468a"/>
<path transform="matrix(1,0,0,-1,19.6932,23.9079)" d="M0 0C.223 0 .403-.18 .403-.403 .403-.625 .223-.806 0-.806-.223-.806-.403-.625-.403-.403-.403-.18-.223 0 0 0" fill="#14468a"/>
<path transform="matrix(1,0,0,-1,11.8082,26.2098)" d="M0 0 .533-.076 .5-.306-.336-.186-.323-.091C-.313-.027-.294 .029-.265 .077-.236 .125-.203 .167-.164 .202-.126 .239-.085 .269-.042 .295 .002 .321 .043 .344 .082 .364 .122 .385 .158 .405 .189 .426 .22 .445 .247 .466 .269 .486 .292 .508 .31 .53 .322 .552 .335 .575 .344 .601 .348 .628 .355 .682 .346 .725 .32 .757 .293 .788 .249 .809 .186 .818 .078 .833-.032 .805-.143 .733L-.108 .977C.012 1.032 .14 1.05 .277 1.03 .341 1.021 .397 1.004 .445 .98 .493 .956 .533 .927 .563 .891 .594 .855 .615 .813 .627 .766 .639 .72 .642 .669 .634 .615 .625 .557 .609 .507 .584 .465 .56 .422 .531 .385 .496 .352 .461 .319 .423 .29 .38 .265 .337 .24 .292 .216 .247 .194 .216 .178 .186 .162 .157 .146 .128 .13 .103 .114 .08 .098 .058 .082 .039 .066 .025 .049 .011 .033 .002 .016 0 0Z" fill="#14468a"/>
<path transform="matrix(1,0,0,-1,13.3216,25.5054)" d="M0 0C-.121 .004-.187-.145-.198-.449-.209-.735-.155-.88-.036-.885 .079-.889 .143-.744 .154-.449 .164-.154 .113-.004 0 0ZM-.053-1.098C-.355-1.087-.498-.87-.483-.446-.474-.226-.427-.059-.342 .053-.256 .165-.135 .219 .02 .213 .315 .202 .455-.019 .439-.45 .431-.665 .384-.828 .299-.94 .215-1.051 .097-1.104-.053-1.098Z" fill="#14468a"/>
<path transform="matrix(1,0,0,-1,14.7687,25.251)" d="M0 0 .089-1.295-.19-1.314-.257-.334C-.271-.348-.288-.362-.309-.376-.329-.389-.35-.402-.373-.413-.396-.424-.42-.434-.444-.443-.469-.451-.494-.458-.519-.462L-.535-.227C-.464-.201-.397-.17-.335-.132-.273-.095-.218-.055-.169-.012L0 0Z" fill="#14468a"/>
<path transform="matrix(1,0,0,-1,16.1141,25.9647)" d="M0 0C-.024 .134-.09 .192-.2 .173-.225 .168-.247 .159-.266 .147-.284 .134-.3 .118-.311 .098-.323 .079-.331 .057-.335 .032-.338 .008-.338-.018-.333-.046-.327-.077-.318-.105-.305-.13-.292-.155-.277-.177-.259-.195-.24-.212-.22-.224-.197-.232-.175-.24-.151-.242-.126-.238-.101-.234-.08-.225-.062-.211-.043-.197-.029-.18-.018-.16-.007-.138 .001-.114 .004-.087 .007-.06 .005-.031 0 0ZM.266 .065C.277 .003 .277-.056 .264-.114 .252-.171 .231-.223 .199-.269 .168-.315 .127-.353 .078-.385 .029-.417-.026-.438-.089-.449-.16-.461-.225-.459-.285-.443-.345-.426-.399-.397-.446-.354-.493-.311-.533-.255-.566-.187-.599-.118-.623-.038-.639 .053-.658 .161-.662 .26-.652 .352-.64 .445-.616 .526-.578 .597-.539 .668-.488 .726-.424 .772-.36 .819-.285 .85-.198 .865-.101 .882-.024 .884 .033 .871L.074 .64C.004 .665-.068 .671-.143 .658-.19 .65-.23 .633-.265 .609-.3 .584-.328 .553-.349 .515-.37 .477-.384 .433-.392 .383-.399 .334-.398 .281-.389 .223L-.384 .224C-.339 .316-.258 .373-.143 .393-.091 .402-.043 .401 .003 .39 .048 .378 .088 .358 .124 .329 .159 .301 .189 .264 .214 .219 .239 .174 .256 .123 .266 .065Z" fill="#14468a"/>
</g>
</g>
</svg>
